<?xml version="1.0" encoding="UTF-8" standalone="no"?>
<!DOCTYPE svg PUBLIC "-//W3C//DTD SVG 1.1//EN"
 "http://www.w3.org/Graphics/SVG/1.1/DTD/svg11.dtd">
<!-- Generated by graphviz version 2.40.1 (20161225.0304)
 -->
<!-- Title: dependencies Pages: 1 -->
<svg width="1632pt" height="284pt"
 viewBox="0.00 0.00 1632.00 284.00" xmlns="http://www.w3.org/2000/svg" xmlns:xlink="http://www.w3.org/1999/xlink">
<g id="graph0" class="graph" transform="scale(1 1) rotate(0) translate(4 280)">
<title>dependencies</title>
<polygon fill="#ffffff" stroke="transparent" points="-4,4 -4,-280 1628,-280 1628,4 -4,4"/>
<text text-anchor="start" x="791.0091" y="-42.4" font-family="sans-serif" font-weight="bold" font-size="14.00" fill="#000000">Legend</text>
<polygon fill="#ffffb3" stroke="transparent" points="578,-10 578,-30 598,-30 598,-10 578,-10"/>
<text text-anchor="start" x="601.629" y="-15.4" font-family="sans-serif" font-size="14.00" fill="#000000"> &#160;Declarations</text>
<polygon fill="#8dd3c7" stroke="transparent" points="691,-10 691,-30 711,-30 711,-10 691,-10"/>
<text text-anchor="start" x="714.7251" y="-15.4" font-family="sans-serif" font-size="14.00" fill="#000000"> &#160;Module</text>
<polygon fill="#80b1d3" stroke="transparent" points="777,-10 777,-30 797,-30 797,-10 777,-10"/>
<text text-anchor="start" x="800.7812" y="-15.4" font-family="sans-serif" font-size="14.00" fill="#000000"> &#160;Bootstrap</text>
<polygon fill="#fdb462" stroke="transparent" points="874,-10 874,-30 894,-30 894,-10 874,-10"/>
<text text-anchor="start" x="897.6732" y="-15.4" font-family="sans-serif" font-size="14.00" fill="#000000"> &#160;Providers</text>
<polygon fill="#fb8072" stroke="transparent" points="970,-10 970,-30 990,-30 990,-10 970,-10"/>
<text text-anchor="start" x="993.7258" y="-15.4" font-family="sans-serif" font-size="14.00" fill="#000000"> &#160;Exports</text>
<g id="clust1" class="cluster">
<title>cluster_AppModule</title>
<polygon fill="none" stroke="#000000" stroke-dasharray="1,5" points="8,-70 8,-268 1616,-268 1616,-70 8,-70"/>
</g>
<g id="clust2" class="cluster">
<title>cluster_AppModule_declarations</title>
<polygon fill="none" stroke="#000000" points="487,-78 487,-130 1608,-130 1608,-78 487,-78"/>
</g>
<g id="clust13" class="cluster">
<title>cluster_AppModule_bootstrap</title>
<polygon fill="none" stroke="#000000" points="788,-208 788,-260 912,-260 912,-208 788,-208"/>
</g>
<g id="clust14" class="cluster">
<title>cluster_AppModule_providers</title>
<polygon fill="none" stroke="#000000" points="16,-78 16,-130 479,-130 479,-78 16,-78"/>
</g>
<!-- AppComponent -->
<g id="node1" class="node">
<title>AppComponent</title>
<polygon fill="#ffffb3" stroke="#000000" points="1599.9399,-122 1494.0601,-122 1494.0601,-86 1599.9399,-86 1599.9399,-122"/>
<text text-anchor="middle" x="1547" y="-99.8" font-family="Times,serif" font-size="14.00" fill="#000000">AppComponent</text>
</g>
<!-- AppModule -->
<g id="node9" class="node">
<title>AppModule</title>
<polygon fill="#8dd3c7" stroke="#000000" points="891.6571,-187 888.6571,-191 867.6571,-191 864.6571,-187 808.3429,-187 808.3429,-151 891.6571,-151 891.6571,-187"/>
<text text-anchor="middle" x="850" y="-164.8" font-family="Times,serif" font-size="14.00" fill="#000000">AppModule</text>
</g>
<!-- AppComponent&#45;&gt;AppModule -->
<g id="edge1" class="edge">
<title>AppComponent&#45;&gt;AppModule</title>
<path fill="none" stroke="#000000" d="M1547,-122.2479C1547,-145.0179 1547,-181 1547,-181 1547,-181 901.7717,-181 901.7717,-181"/>
<polygon fill="#000000" stroke="#000000" points="901.7717,-177.5001 891.7717,-181 901.7716,-184.5001 901.7717,-177.5001"/>
</g>
<!-- ListComponent -->
<g id="node2" class="node">
<title>ListComponent</title>
<polygon fill="#ffffb3" stroke="#000000" points="1476.6109,-122 1373.3891,-122 1373.3891,-86 1476.6109,-86 1476.6109,-122"/>
<text text-anchor="middle" x="1425" y="-99.8" font-family="Times,serif" font-size="14.00" fill="#000000">ListComponent</text>
</g>
<!-- ListComponent&#45;&gt;AppModule -->
<g id="edge2" class="edge">
<title>ListComponent&#45;&gt;AppModule</title>
<path fill="none" stroke="#000000" d="M1425,-122.2843C1425,-143.3211 1425,-175 1425,-175 1425,-175 901.8158,-175 901.8158,-175"/>
<polygon fill="#000000" stroke="#000000" points="901.8158,-171.5001 891.8158,-175 901.8157,-178.5001 901.8158,-171.5001"/>
</g>
<!-- FormComponent -->
<g id="node3" class="node">
<title>FormComponent</title>
<polygon fill="#ffffb3" stroke="#000000" points="1355.6667,-122 1244.3333,-122 1244.3333,-86 1355.6667,-86 1355.6667,-122"/>
<text text-anchor="middle" x="1300" y="-99.8" font-family="Times,serif" font-size="14.00" fill="#000000">FormComponent</text>
</g>
<!-- FormComponent&#45;&gt;AppModule -->
<g id="edge3" class="edge">
<title>FormComponent&#45;&gt;AppModule</title>
<path fill="none" stroke="#000000" d="M1300,-122.1061C1300,-141.3391 1300,-169 1300,-169 1300,-169 901.9308,-169 901.9308,-169"/>
<polygon fill="#000000" stroke="#000000" points="901.9308,-165.5001 891.9308,-169 901.9308,-172.5001 901.9308,-165.5001"/>
</g>
<!-- InputTextComponent -->
<g id="node4" class="node">
<title>InputTextComponent</title>
<polygon fill="#ffffb3" stroke="#000000" points="1226.0422,-122 1089.9578,-122 1089.9578,-86 1226.0422,-86 1226.0422,-122"/>
<text text-anchor="middle" x="1158" y="-99.8" font-family="Times,serif" font-size="14.00" fill="#000000">InputTextComponent</text>
</g>
<!-- InputTextComponent&#45;&gt;AppModule -->
<g id="edge4" class="edge">
<title>InputTextComponent&#45;&gt;AppModule</title>
<path fill="none" stroke="#000000" d="M1158,-122.0225C1158,-139.3734 1158,-163 1158,-163 1158,-163 901.8588,-163 901.8588,-163"/>
<polygon fill="#000000" stroke="#000000" points="901.8588,-159.5001 891.8588,-163 901.8588,-166.5001 901.8588,-159.5001"/>
</g>
<!-- DropDownComponent -->
<g id="node5" class="node">
<title>DropDownComponent</title>
<polygon fill="#ffffb3" stroke="#000000" points="1072.3131,-122 927.6869,-122 927.6869,-86 1072.3131,-86 1072.3131,-122"/>
<text text-anchor="middle" x="1000" y="-99.8" font-family="Times,serif" font-size="14.00" fill="#000000">DropDownComponent</text>
</g>
<!-- DropDownComponent&#45;&gt;AppModule -->
<g id="edge5" class="edge">
<title>DropDownComponent&#45;&gt;AppModule</title>
<path fill="none" stroke="#000000" d="M1000,-122.2396C1000,-137.5706 1000,-157 1000,-157 1000,-157 901.7834,-157 901.7834,-157"/>
<polygon fill="#000000" stroke="#000000" points="901.7834,-153.5001 891.7834,-157 901.7833,-160.5001 901.7834,-153.5001"/>
</g>
<!-- ButtonComponent -->
<g id="node6" class="node">
<title>ButtonComponent</title>
<polygon fill="#ffffb3" stroke="#000000" points="909.9511,-122 790.0489,-122 790.0489,-86 909.9511,-86 909.9511,-122"/>
<text text-anchor="middle" x="850" y="-99.8" font-family="Times,serif" font-size="14.00" fill="#000000">ButtonComponent</text>
</g>
<!-- ButtonComponent&#45;&gt;AppModule -->
<g id="edge6" class="edge">
<title>ButtonComponent&#45;&gt;AppModule</title>
<path fill="none" stroke="#000000" d="M850,-122.1061C850,-122.1061 850,-140.991 850,-140.991"/>
<polygon fill="#000000" stroke="#000000" points="846.5001,-140.9909 850,-150.991 853.5001,-140.991 846.5001,-140.9909"/>
</g>
<!-- InputRadioComponent -->
<g id="node7" class="node">
<title>InputRadioComponent</title>
<polygon fill="#ffffb3" stroke="#000000" points="772.3258,-122 627.6742,-122 627.6742,-86 772.3258,-86 772.3258,-122"/>
<text text-anchor="middle" x="700" y="-99.8" font-family="Times,serif" font-size="14.00" fill="#000000">InputRadioComponent</text>
</g>
<!-- InputRadioComponent&#45;&gt;AppModule -->
<g id="edge7" class="edge">
<title>InputRadioComponent&#45;&gt;AppModule</title>
<path fill="none" stroke="#000000" d="M700,-122.2396C700,-137.5706 700,-157 700,-157 700,-157 798.2166,-157 798.2166,-157"/>
<polygon fill="#000000" stroke="#000000" points="798.2167,-160.5001 808.2166,-157 798.2166,-153.5001 798.2167,-160.5001"/>
</g>
<!-- LoginComponent -->
<g id="node8" class="node">
<title>LoginComponent</title>
<polygon fill="#ffffb3" stroke="#000000" points="609.2758,-122 494.7242,-122 494.7242,-86 609.2758,-86 609.2758,-122"/>
<text text-anchor="middle" x="552" y="-99.8" font-family="Times,serif" font-size="14.00" fill="#000000">LoginComponent</text>
</g>
<!-- LoginComponent&#45;&gt;AppModule -->
<g id="edge8" class="edge">
<title>LoginComponent&#45;&gt;AppModule</title>
<path fill="none" stroke="#000000" d="M552,-122.0225C552,-139.3734 552,-163 552,-163 552,-163 798.2506,-163 798.2506,-163"/>
<polygon fill="#000000" stroke="#000000" points="798.2506,-166.5001 808.2506,-163 798.2506,-159.5001 798.2506,-166.5001"/>
</g>
<!-- AppComponent  -->
<g id="node10" class="node">
<title>AppComponent </title>
<polygon fill="#80b1d3" stroke="#000000" points="904.439,-252 795.561,-252 795.561,-216 904.439,-216 904.439,-252"/>
<text text-anchor="middle" x="850" y="-229.8" font-family="Times,serif" font-size="14.00" fill="#000000">AppComponent </text>
</g>
<!-- AppModule&#45;&gt;AppComponent  -->
<g id="edge9" class="edge">
<title>AppModule&#45;&gt;AppComponent </title>
<path fill="none" stroke="#000000" stroke-dasharray="1,5" d="M850,-187.1061C850,-187.1061 850,-205.991 850,-205.991"/>
<polygon fill="#000000" stroke="#000000" points="846.5001,-205.9909 850,-215.991 853.5001,-205.991 846.5001,-205.9909"/>
</g>
<!-- AuthService -->
<g id="node11" class="node">
<title>AuthService</title>
<ellipse fill="#fdb462" stroke="#000000" cx="412" cy="-104" rx="59.1083" ry="18"/>
<text text-anchor="middle" x="412" y="-99.8" font-family="Times,serif" font-size="14.00" fill="#000000">AuthService</text>
</g>
<!-- AuthService&#45;&gt;AppModule -->
<g id="edge10" class="edge">
<title>AuthService&#45;&gt;AppModule</title>
<path fill="none" stroke="#000000" d="M412,-122.1061C412,-141.3391 412,-169 412,-169 412,-169 798.0027,-169 798.0027,-169"/>
<polygon fill="#000000" stroke="#000000" points="798.0028,-172.5001 808.0027,-169 798.0027,-165.5001 798.0028,-172.5001"/>
</g>
<!-- DataStoreService -->
<g id="node12" class="node">
<title>DataStoreService</title>
<ellipse fill="#fdb462" stroke="#000000" cx="256" cy="-104" rx="78.7047" ry="18"/>
<text text-anchor="middle" x="256" y="-99.8" font-family="Times,serif" font-size="14.00" fill="#000000">DataStoreService</text>
</g>
<!-- DataStoreService&#45;&gt;AppModule -->
<g id="edge11" class="edge">
<title>DataStoreService&#45;&gt;AppModule</title>
<path fill="none" stroke="#000000" d="M256,-122.2843C256,-143.3211 256,-175 256,-175 256,-175 798.2311,-175 798.2311,-175"/>
<polygon fill="#000000" stroke="#000000" points="798.2311,-178.5001 808.2311,-175 798.231,-171.5001 798.2311,-178.5001"/>
</g>
<!-- LoggerService -->
<g id="node13" class="node">
<title>LoggerService</title>
<ellipse fill="#fdb462" stroke="#000000" cx="92" cy="-104" rx="67.7567" ry="18"/>
<text text-anchor="middle" x="92" y="-99.8" font-family="Times,serif" font-size="14.00" fill="#000000">LoggerService</text>
</g>
<!-- LoggerService&#45;&gt;AppModule -->
<g id="edge12" class="edge">
<title>LoggerService&#45;&gt;AppModule</title>
<path fill="none" stroke="#000000" d="M92,-122.2479C92,-145.0179 92,-181 92,-181 92,-181 798.1669,-181 798.1669,-181"/>
<polygon fill="#000000" stroke="#000000" points="798.167,-184.5001 808.1669,-181 798.1669,-177.5001 798.167,-184.5001"/>
</g>
</g>
</svg>
